<svg width="575" height="576" viewBox="0 0 575 576" fill="none" xmlns="http://www.w3.org/2000/svg">
<circle cx="92.5" cy="483.5" r="92.5" fill="white"/>
<circle cx="92.5" cy="92.5" r="92.5" fill="white"/>
<ellipse cx="286.5" cy="288" rx="92.5" ry="93" fill="white"/>
<circle cx="482.5" cy="483.5" r="92.5" fill="#67B0E3"/>
<circle cx="482.5" cy="92.5" r="92.5" fill="#0D253B"/>
<path d="M195 491C195 435.772 239.772 391 295 391H380V475C380 530.228 335.228 575 280 575H195V491Z" fill="#0D253B"/>
<path d="M195 100C195 44.7715 239.772 0 295 0H380V84C380 139.228 335.228 184 280 184H195V100Z" fill="#67B0E3"/>
<path d="M100 381C44.7715 381 -1.95703e-06 336.228 -4.37114e-06 281L-8.08661e-06 196L84 196C139.228 196 184 240.772 184 296L184 381L100 381Z" fill="#FF7654"/>
<path d="M489 381C433.772 381 389 336.228 389 281L389 196L473 196C528.228 196 573 240.772 573 296L573 381L489 381Z" fill="#FF7654"/>
</svg>
