<svg width="13" height="13" viewBox="0 0 13 13" fill="none" xmlns="http://www.w3.org/2000/svg">
<g clip-path="url(#clip0_18_907)">
<path d="M12.8855 2.58301L8.94287 6.50025L12.8855 10.4175C12.9568 10.2685 13 10.1038 13 9.92798V3.07251C13 2.89663 12.9568 2.73197 12.8855 2.58301Z" fill="#3C3D42"/>
<path d="M11.8574 1.92969H1.14258C0.966701 1.92969 0.802043 1.97293 0.653076 2.0442L5.69217 7.05792C6.13773 7.50348 6.86227 7.50348 7.30783 7.05792L12.3469 2.0442C12.198 1.97293 12.0333 1.92969 11.8574 1.92969Z" fill="#3C3D42"/>
<path d="M0.114512 2.58301C0.0432402 2.73197 0 2.89663 0 3.07251V9.92798C0 10.1039 0.0432402 10.2685 0.114512 10.4175L4.05714 6.50025L0.114512 2.58301Z" fill="#3C3D42"/>
<path d="M8.4043 7.03857L7.84639 7.59648C7.10399 8.33888 5.89598 8.33888 5.15359 7.59648L4.5957 7.03857L0.653076 10.9558C0.802043 11.0271 0.966701 11.0703 1.14258 11.0703H11.8574C12.0333 11.0703 12.198 11.0271 12.3469 10.9558L8.4043 7.03857Z" fill="#3C3D42"/>
</g>
<defs>
<clipPath id="clip0_18_907">
<rect width="13" height="13" fill="white"/>
</clipPath>
</defs>
</svg>
