<svg width="13" height="9" viewBox="0 0 13 9" fill="none" xmlns="http://www.w3.org/2000/svg">
<g filter="url(#filter0_d_2_5)">
<path d="M12.8855 0.65332L8.94287 4.57056L12.8855 8.48781C12.9568 8.33881 13 8.17411 13 7.99829V1.14282C13 0.96694 12.9568 0.80228 12.8855 0.65332Z" fill="#9E0000"/>
<path d="M11.8574 0H1.14258C0.966701 0 0.802043 0.0432399 0.653076 0.11451L5.69217 5.12823C6.13773 5.57379 6.86227 5.57379 7.30783 5.12823L12.3469 0.11451C12.198 0.0432399 12.0333 0 11.8574 0Z" fill="#9E0000"/>
<path d="M0.114512 0.65332C0.0432402 0.80228 0 0.96694 0 1.14282V7.99829C0 8.17421 0.0432402 8.33881 0.114512 8.48781L4.05714 4.57056L0.114512 0.65332Z" fill="#9E0000"/>
<path d="M8.4043 5.10889L7.84639 5.6668C7.10399 6.4092 5.89598 6.4092 5.15359 5.6668L4.5957 5.10889L0.653076 9.02612C0.802043 9.09742 0.966701 9.14062 1.14258 9.14062H11.8574C12.0333 9.14062 12.198 9.09742 12.3469 9.02612L8.4043 5.10889Z" fill="#9E0000"/>
</g>
<defs>
<filter id="filter0_d_2_5" x="-4" y="0" width="21" height="17.1406" filterUnits="userSpaceOnUse" color-interpolation-filters="sRGB">
<feFlood flood-opacity="0" result="BackgroundImageFix"/>
<feColorMatrix in="SourceAlpha" type="matrix" values="0 0 0 0 0 0 0 0 0 0 0 0 0 0 0 0 0 0 127 0" result="hardAlpha"/>
<feOffset dy="4"/>
<feGaussianBlur stdDeviation="2"/>
<feComposite in2="hardAlpha" operator="out"/>
<feColorMatrix type="matrix" values="0 0 0 0 0 0 0 0 0 0 0 0 0 0 0 0 0 0 0.25 0"/>
<feBlend mode="normal" in2="BackgroundImageFix" result="effect1_dropShadow_2_5"/>
<feBlend mode="normal" in="SourceGraphic" in2="effect1_dropShadow_2_5" result="shape"/>
</filter>
</defs>
</svg>
