<svg width="996" height="168" viewBox="0 0 996 168" fill="none" xmlns="http://www.w3.org/2000/svg">
<rect x="118" y="134" width="34" height="34" fill="#D5EDFF"/>
<rect x="128" y="121" width="34" height="34" fill="#67B0E3"/>
<rect x="523" y="134" width="34" height="34" fill="#D5EDFF"/>
<rect x="533" y="121" width="34" height="34" fill="#67B0E3"/>
<rect x="924" y="134" width="34" height="34" fill="#D5EDFF"/>
<rect x="934" y="121" width="34" height="34" fill="#67B0E3"/>
<path d="M115 129.273L114.744 128.843L115 129.273ZM86 34.0203L86.094 34.5114L86 34.0203ZM136.5 151.273L136.466 151.772L136.5 151.273ZM423.5 64.7729L423.308 64.3115L423.5 64.7729ZM558 56.9737L557.584 57.2508L558 56.9737ZM475.5 116.773L475.134 117.114L475.5 116.773ZM517 8.33777L517.159 8.81189L517 8.33777ZM947.5 115.772L947.116 115.452L947.5 115.772ZM927.5 45.7727L927.606 45.2841L927.5 45.7727ZM881 112.773L881.413 112.492L881 112.773ZM995.45 127.99C995.57 127.741 995.466 127.443 995.217 127.322L991.165 125.366C990.917 125.245 990.618 125.35 990.498 125.598C990.377 125.847 990.482 126.146 990.73 126.266L994.332 128.006L992.593 131.607C992.473 131.856 992.577 132.155 992.826 132.275C993.074 132.395 993.373 132.291 993.493 132.042L995.45 127.99ZM0.864321 129.754C17.7027 134.502 37.7239 139.584 57.8101 140.937C77.8957 142.289 98.0937 139.915 115.256 129.703L114.744 128.843C97.8229 138.912 77.8542 141.284 57.8773 139.939C37.9011 138.594 17.964 133.536 1.13568 128.792L0.864321 129.754ZM115.256 129.703C130.463 120.654 139.518 109.5 143.704 97.9868C147.89 86.4744 147.194 74.6403 142.963 64.2611C134.506 43.514 111.91 28.5516 85.906 33.5292L86.094 34.5114C111.59 29.6308 133.744 44.2947 142.037 64.6385C146.181 74.8047 146.86 86.3822 142.764 97.6451C138.67 108.907 129.787 119.892 114.744 128.843L115.256 129.703ZM85.906 33.5292C58.8465 38.709 42.5915 66.3833 47.5706 93.6784C52.5625 121.043 78.8211 147.898 136.466 151.772L136.534 150.774C79.1789 146.919 53.4375 120.268 48.5544 93.4989C43.6585 66.6602 59.6535 39.5727 86.094 34.5114L85.906 33.5292ZM136.466 151.772C182.579 154.871 239.622 139.382 292.484 120.066C345.35 100.749 394.143 77.5599 423.692 65.2344L423.308 64.3115C393.691 76.6648 344.984 99.8177 292.141 119.127C239.295 138.437 182.421 153.858 136.534 150.774L136.466 151.772ZM423.692 65.2344C439.971 58.4447 466.594 46.0969 492.625 40.6414C518.686 35.1798 543.883 36.6794 557.584 57.2508L558.416 56.6965C544.344 35.5672 518.541 34.1885 492.42 39.6627C466.27 45.143 439.529 57.5452 423.308 64.3115L423.692 65.2344ZM557.584 57.2508C574.166 82.1487 565.461 109.495 546.724 124.363C537.358 131.796 525.5 136.093 513.067 135.4C500.642 134.707 487.602 129.027 475.866 116.432L475.134 117.114C487.028 129.878 500.303 135.69 513.012 136.399C525.713 137.107 537.807 132.716 547.346 125.146C566.419 110.01 575.334 82.0979 558.416 56.6965L557.584 57.2508ZM475.866 116.432C465.748 105.574 459.767 84.1254 464.488 62.6383C469.2 41.1952 484.573 19.7243 517.159 8.81189L516.841 7.86365C483.927 18.8863 468.3 40.6329 463.512 62.4237C458.733 84.1703 464.752 105.972 475.134 117.114L475.866 116.432ZM517.159 8.81189C576.059 -10.913 684.067 7.2455 777.172 88.196L777.828 87.4413C684.533 6.32516 576.164 -12.0026 516.841 7.86365L517.159 8.81189ZM777.172 88.196C823.816 128.751 860.305 143.165 888.26 143.7C916.236 144.235 935.571 130.868 947.884 116.093L947.116 115.452C934.947 130.055 915.882 143.228 888.279 142.7C860.654 142.172 824.384 127.92 777.828 87.4413L777.172 88.196ZM947.884 116.093C955.483 106.974 959.958 91.3809 957.785 77.0271C956.697 69.8397 953.938 62.9406 949.048 57.3152C944.154 51.6861 937.146 47.358 927.606 45.2841L927.394 46.2613C936.741 48.2933 943.552 52.5181 948.293 57.9713C953.037 63.4283 955.731 70.1409 956.796 77.1768C958.93 91.27 954.517 106.57 947.116 115.452L947.884 116.093ZM927.606 45.2841C916.007 42.7626 906.172 44.1443 898.217 48.0584C890.266 51.9705 884.226 58.3959 880.185 65.9109C872.115 80.9157 871.961 100.37 880.587 113.054L881.413 112.492C873.039 100.175 873.135 81.1297 881.065 66.3845C885.024 59.0245 890.922 52.7624 898.658 48.9557C906.391 45.1511 915.993 43.7828 927.394 46.2613L927.606 45.2841ZM880.587 113.054C891.356 128.892 906.871 137.284 926.266 139.411C945.639 141.535 968.881 137.41 995.165 128.245L994.835 127.301C968.619 136.442 945.538 140.518 926.375 138.417C907.234 136.318 891.999 128.058 881.413 112.492L880.587 113.054Z" fill="#FF7654"/>
<path d="M122.377 129.612V136.272H93.5772V129.612H104.125V99.2645C104.125 98.0645 104.161 96.8285 104.233 95.5565L96.7452 101.82C96.3132 102.156 95.8812 102.372 95.4492 102.468C95.0412 102.54 94.6452 102.54 94.2612 102.468C93.9012 102.396 93.5772 102.276 93.2892 102.108C93.0012 101.916 92.7852 101.712 92.6412 101.496L89.8332 97.6445L105.709 84.1445H113.017V129.612H122.377Z" fill="#255B8C"/>
<path d="M522.433 127.992C523.393 127.992 524.149 128.268 524.701 128.82C525.277 129.348 525.565 130.056 525.565 130.944V136.272H489.853V133.32C489.853 132.72 489.973 132.096 490.213 131.448C490.477 130.776 490.885 130.176 491.437 129.648L507.241 113.808C508.561 112.464 509.737 111.18 510.769 109.956C511.825 108.732 512.701 107.52 513.397 106.32C514.093 105.12 514.621 103.908 514.981 102.684C515.365 101.436 515.557 100.128 515.557 98.7605C515.557 97.5125 515.377 96.4205 515.017 95.4845C514.657 94.5245 514.141 93.7205 513.469 93.0725C512.821 92.4245 512.029 91.9445 511.093 91.6325C510.181 91.2965 509.149 91.1285 507.997 91.1285C506.941 91.1285 505.957 91.2845 505.045 91.5965C504.157 91.8845 503.365 92.3045 502.669 92.8565C501.973 93.3845 501.385 94.0085 500.905 94.7285C500.425 95.4485 500.065 96.2405 499.825 97.1045C499.417 98.2085 498.889 98.9405 498.241 99.3005C497.593 99.6605 496.657 99.7445 495.433 99.5525L490.753 98.7245C491.113 96.2285 491.809 94.0445 492.841 92.1725C493.873 90.2765 495.157 88.7045 496.693 87.4565C498.253 86.1845 500.029 85.2365 502.021 84.6125C504.037 83.9645 506.197 83.6405 508.501 83.6405C510.901 83.6405 513.097 84.0005 515.089 84.7205C517.081 85.4165 518.785 86.4125 520.201 87.7085C521.617 89.0045 522.721 90.5645 523.513 92.3885C524.305 94.2125 524.701 96.2405 524.701 98.4725C524.701 100.392 524.413 102.168 523.837 103.8C523.285 105.432 522.529 106.992 521.569 108.48C520.633 109.968 519.529 111.408 518.257 112.8C516.985 114.192 515.653 115.608 514.261 117.048L502.525 129.036C503.653 128.7 504.769 128.448 505.873 128.28C507.001 128.088 508.069 127.992 509.077 127.992H522.433Z" fill="#255B8C"/>
<path d="M893.005 98.7245C893.365 96.2285 894.061 94.0445 895.093 92.1725C896.125 90.2765 897.409 88.7045 898.945 87.4565C900.505 86.1845 902.281 85.2365 904.273 84.6125C906.289 83.9645 908.449 83.6405 910.753 83.6405C913.153 83.6405 915.313 83.9885 917.233 84.6845C919.177 85.3565 920.833 86.3045 922.201 87.5285C923.569 88.7285 924.613 90.1445 925.333 91.7765C926.077 93.4085 926.449 95.1725 926.449 97.0685C926.449 98.7245 926.257 100.188 925.873 101.46C925.513 102.708 924.985 103.8 924.289 104.736C923.593 105.672 922.729 106.464 921.697 107.112C920.665 107.76 919.501 108.3 918.205 108.732C921.325 109.716 923.653 111.216 925.189 113.232C926.725 115.248 927.493 117.78 927.493 120.828C927.493 123.42 927.013 125.712 926.053 127.704C925.093 129.696 923.797 131.376 922.165 132.744C920.533 134.088 918.637 135.108 916.477 135.804C914.341 136.5 912.073 136.848 909.673 136.848C907.057 136.848 904.777 136.548 902.833 135.948C900.889 135.348 899.197 134.46 897.757 133.284C896.317 132.108 895.093 130.668 894.085 128.964C893.077 127.26 892.213 125.292 891.493 123.06L895.417 121.44C896.449 121.008 897.409 120.9 898.297 121.116C899.209 121.308 899.869 121.788 900.277 122.556C900.709 123.396 901.177 124.224 901.681 125.04C902.209 125.856 902.833 126.588 903.553 127.236C904.273 127.86 905.113 128.376 906.073 128.784C907.057 129.168 908.221 129.36 909.565 129.36C911.077 129.36 912.397 129.12 913.525 128.64C914.653 128.136 915.589 127.488 916.333 126.696C917.101 125.904 917.665 125.028 918.025 124.068C918.409 123.084 918.601 122.1 918.601 121.116C918.601 119.868 918.469 118.74 918.205 117.732C917.941 116.7 917.389 115.824 916.549 115.104C915.709 114.384 914.497 113.82 912.913 113.412C911.353 113.004 909.253 112.8 906.613 112.8V106.464C908.797 106.44 910.609 106.236 912.049 105.852C913.489 105.468 914.629 104.94 915.469 104.268C916.333 103.572 916.933 102.744 917.269 101.784C917.605 100.824 917.773 99.7685 917.773 98.6165C917.773 96.1685 917.089 94.3085 915.721 93.0365C914.353 91.7645 912.529 91.1285 910.249 91.1285C909.193 91.1285 908.221 91.2845 907.333 91.5965C906.445 91.8845 905.641 92.3045 904.921 92.8565C904.225 93.3845 903.637 94.0085 903.157 94.7285C902.677 95.4485 902.317 96.2405 902.077 97.1045C901.669 98.2085 901.129 98.9405 900.457 99.3005C899.809 99.6605 898.885 99.7445 897.685 99.5525L893.005 98.7245Z" fill="#255B8C"/>
</svg>
