<svg width="703" height="105" viewBox="0 0 703 105" fill="none" xmlns="http://www.w3.org/2000/svg">
<path d="M641.198 53.925C641.448 52.1917 641.931 50.675 642.648 49.375C643.365 48.0583 644.256 46.9667 645.323 46.1C646.406 45.2167 647.64 44.5583 649.023 44.125C650.423 43.675 651.923 43.45 653.523 43.45C655.19 43.45 656.69 43.6917 658.023 44.175C659.373 44.6417 660.523 45.3 661.473 46.15C662.423 46.9833 663.148 47.9667 663.648 49.1C664.165 50.2333 664.423 51.4583 664.423 52.775C664.423 53.925 664.29 54.9417 664.023 55.825C663.773 56.6917 663.406 57.45 662.923 58.1C662.44 58.75 661.84 59.3 661.123 59.75C660.406 60.2 659.598 60.575 658.698 60.875C660.865 61.5583 662.481 62.6 663.548 64C664.615 65.4 665.148 67.1583 665.148 69.275C665.148 71.075 664.815 72.6667 664.148 74.05C663.481 75.4333 662.581 76.6 661.448 77.55C660.315 78.4833 658.998 79.1917 657.498 79.675C656.015 80.1583 654.44 80.4 652.773 80.4C650.956 80.4 649.373 80.1917 648.023 79.775C646.673 79.3583 645.498 78.7417 644.498 77.925C643.498 77.1083 642.648 76.1083 641.948 74.925C641.248 73.7417 640.648 72.375 640.148 70.825L642.873 69.7C643.59 69.4 644.256 69.325 644.873 69.475C645.506 69.6083 645.965 69.9417 646.248 70.475C646.548 71.0583 646.873 71.6333 647.223 72.2C647.59 72.7667 648.023 73.275 648.523 73.725C649.023 74.1583 649.606 74.5167 650.273 74.8C650.956 75.0667 651.765 75.2 652.698 75.2C653.748 75.2 654.665 75.0333 655.448 74.7C656.231 74.35 656.881 73.9 657.398 73.35C657.931 72.8 658.323 72.1917 658.573 71.525C658.84 70.8417 658.973 70.1583 658.973 69.475C658.973 68.6083 658.881 67.825 658.698 67.125C658.515 66.4083 658.131 65.8 657.548 65.3C656.965 64.8 656.123 64.4083 655.023 64.125C653.94 63.8417 652.481 63.7 650.648 63.7V59.3C652.165 59.2833 653.423 59.1417 654.423 58.875C655.423 58.6083 656.215 58.2417 656.798 57.775C657.398 57.2917 657.815 56.7167 658.048 56.05C658.281 55.3833 658.398 54.65 658.398 53.85C658.398 52.15 657.923 50.8583 656.973 49.975C656.023 49.0917 654.756 48.65 653.173 48.65C652.44 48.65 651.765 48.7583 651.148 48.975C650.531 49.175 649.973 49.4667 649.473 49.85C648.99 50.2167 648.581 50.65 648.248 51.15C647.915 51.65 647.665 52.2 647.498 52.8C647.215 53.5667 646.84 54.075 646.373 54.325C645.923 54.575 645.281 54.6333 644.448 54.5L641.198 53.925Z" fill="#255B8C"/>
<rect x="77" y="65.8511" width="23.1491" height="23.1491" fill="#D5EDFF"/>
<rect x="83.8066" y="57" width="23.1491" height="23.1491" fill="#67B0E3"/>
<rect x="375" y="65.8511" width="23.1491" height="23.1491" fill="#D5EDFF"/>
<rect x="381.807" y="57" width="23.1491" height="23.1491" fill="#67B0E3"/>
<rect x="673" y="65.8511" width="23.1491" height="23.1491" fill="#D5EDFF"/>
<rect x="679.807" y="57" width="23.1491" height="23.1491" fill="#67B0E3"/>
<path d="M81.3964 88.69L81.1466 88.2569L81.3964 88.69ZM60.9447 23.5733L61.0359 24.065L60.9447 23.5733ZM96.5589 103.73L96.5263 104.229L96.5589 103.73ZM298.96 44.5965L298.773 44.1329L298.96 44.5965ZM393.814 39.2647L393.402 39.5479L393.814 39.2647ZM335.632 80.1447L335.272 80.4912L335.632 80.1447ZM364.899 6.01625L365.054 6.49182L364.899 6.01625ZM654.397 31.6075L654.5 31.1183L654.397 31.6075ZM621.604 77.4101L622.013 77.1229L621.604 77.4101ZM702.448 87.8861C702.571 87.6386 702.469 87.3387 702.222 87.2162L698.188 85.2207C697.941 85.0982 697.641 85.1996 697.518 85.4471C697.396 85.6946 697.497 85.9945 697.745 86.117L701.33 87.8908L699.556 91.476C699.434 91.7235 699.535 92.0234 699.783 92.1459C700.03 92.2683 700.33 92.1669 700.453 91.9194L702.448 87.8861ZM0.868186 89.1723C12.7445 92.4181 26.8754 95.896 41.0554 96.8215C55.2342 97.7468 69.5093 96.1237 81.6462 89.1231L81.1466 88.2569C69.2467 95.1208 55.195 96.7421 41.1205 95.8236C27.0473 94.9051 12.9982 91.4508 1.13181 88.2077L0.868186 89.1723ZM81.6462 89.1231C92.3934 82.924 98.8081 75.2739 101.776 67.3609C104.744 59.448 104.25 51.3134 101.251 44.1818C95.258 29.9299 79.255 19.6672 60.8534 23.0817L61.0359 24.065C78.9537 20.7402 94.5099 30.7306 100.329 44.5694C103.237 51.483 103.712 59.353 100.84 67.0097C97.968 74.6664 91.7326 82.1508 81.1466 88.2569L81.6462 89.1231ZM60.8534 23.0817C41.6888 26.6379 30.1707 45.6412 33.6986 64.3879C37.238 83.1961 55.841 101.578 96.5263 104.229L96.5914 103.231C56.1751 100.598 38.1061 82.4018 34.6813 64.203C31.245 45.9428 42.4707 27.5098 61.0359 24.065L60.8534 23.0817ZM96.5263 104.229C129.076 106.349 169.327 95.7518 206.61 82.5461C243.895 69.3393 278.317 53.4822 299.148 45.06L298.773 44.1329C277.877 52.5817 243.539 68.4046 206.276 81.6035C169.009 94.8034 128.923 105.337 96.5914 103.231L96.5263 104.229ZM299.148 45.06C310.635 40.4154 329.394 31.9813 347.737 28.2551C366.111 24.5223 383.796 25.5669 393.402 39.5479L394.226 38.9816C384.245 24.4551 365.963 23.532 347.538 27.2751C329.08 31.0249 310.205 39.5104 298.773 44.1329L299.148 45.06ZM393.402 39.5479C405.037 56.4819 398.938 75.08 385.776 85.205C372.631 95.3167 352.468 96.9372 335.993 79.7982L335.272 80.4912C352.126 98.0241 372.866 96.3973 386.386 85.9976C399.888 75.6109 406.216 56.4331 394.226 38.9816L393.402 39.5479ZM335.993 79.7982C328.9 72.4195 324.691 57.8169 328.01 43.1744C331.319 28.5763 342.117 13.9375 365.054 6.49182L364.745 5.54068C341.489 13.0902 330.425 27.9959 327.034 42.9533C323.654 57.8662 327.908 72.8302 335.272 80.4912L335.993 79.7982ZM365.054 6.49182C406.537 -6.9745 482.659 5.41849 548.29 60.7333L548.934 59.9687C483.11 4.49145 406.637 -8.05831 364.745 5.54068L365.054 6.49182ZM548.29 60.7333C581.199 88.4696 606.963 98.3444 626.721 98.7108C646.499 99.0775 660.173 89.9153 668.881 79.7867L668.122 79.1348C659.564 89.0901 646.157 98.071 626.739 97.7109C607.301 97.3505 581.753 87.6284 548.934 59.9687L548.29 60.7333ZM668.881 79.7867C674.271 73.5161 677.44 62.8066 675.9 52.9477C675.128 48.0074 673.172 43.2605 669.699 39.3886C666.224 35.5138 661.253 32.5414 654.5 31.1183L654.294 32.0968C660.86 33.4806 665.635 36.3551 668.955 40.0563C672.277 43.7606 674.165 48.3188 674.912 53.102C676.409 62.69 673.31 73.1002 668.122 79.1348L668.881 79.7867ZM654.5 31.1183C638.052 27.6521 626.643 34.9453 620.902 45.2937C615.187 55.5952 615.069 68.9652 621.194 77.6972L622.013 77.1229C616.149 68.7645 616.208 55.8151 621.776 45.7789C627.319 35.7896 638.302 28.7268 654.294 32.0968L654.5 31.1183ZM621.194 77.6972C628.819 88.5666 639.802 94.3207 653.512 95.778C667.202 97.2331 683.615 94.4063 702.16 88.1381L701.84 87.1907C683.36 93.4368 667.105 96.2171 653.618 94.7836C640.151 93.3522 629.448 87.722 622.013 77.1229L621.194 77.6972Z" fill="#FF7654"/>
<path d="M71.373 75.375V80H51.373V75.375H58.698V54.3C58.698 53.4667 58.723 52.6083 58.773 51.725L53.573 56.075C53.273 56.3083 52.973 56.4583 52.673 56.525C52.3897 56.575 52.1147 56.575 51.848 56.525C51.598 56.475 51.373 56.3917 51.173 56.275C50.973 56.1417 50.823 56 50.723 55.85L48.773 53.175L59.798 43.8H64.873V75.375H71.373Z" fill="#255B8C"/>
<path d="M366.023 74.25C366.69 74.25 367.215 74.4417 367.598 74.825C367.998 75.1917 368.198 75.6833 368.198 76.3V80H343.398V77.95C343.398 77.5333 343.481 77.1 343.648 76.65C343.831 76.1833 344.115 75.7667 344.498 75.4L355.473 64.4C356.39 63.4667 357.206 62.575 357.923 61.725C358.656 60.875 359.265 60.0333 359.748 59.2C360.231 58.3667 360.598 57.525 360.848 56.675C361.115 55.8083 361.248 54.9 361.248 53.95C361.248 53.0833 361.123 52.325 360.873 51.675C360.623 51.0083 360.265 50.45 359.798 50C359.348 49.55 358.798 49.2167 358.148 49C357.515 48.7667 356.798 48.65 355.998 48.65C355.265 48.65 354.581 48.7583 353.948 48.975C353.331 49.175 352.781 49.4667 352.298 49.85C351.815 50.2167 351.406 50.65 351.073 51.15C350.74 51.65 350.49 52.2 350.323 52.8C350.04 53.5667 349.673 54.075 349.223 54.325C348.773 54.575 348.123 54.6333 347.273 54.5L344.023 53.925C344.273 52.1917 344.756 50.675 345.473 49.375C346.19 48.0583 347.081 46.9667 348.148 46.1C349.231 45.2167 350.465 44.5583 351.848 44.125C353.248 43.675 354.748 43.45 356.348 43.45C358.015 43.45 359.54 43.7 360.923 44.2C362.306 44.6833 363.49 45.375 364.473 46.275C365.456 47.175 366.223 48.2583 366.773 49.525C367.323 50.7917 367.598 52.2 367.598 53.75C367.598 55.0833 367.398 56.3167 366.998 57.45C366.615 58.5833 366.09 59.6667 365.423 60.7C364.773 61.7333 364.006 62.7333 363.123 63.7C362.24 64.6667 361.315 65.65 360.348 66.65L352.198 74.975C352.981 74.7417 353.756 74.5667 354.523 74.45C355.306 74.3167 356.048 74.25 356.748 74.25H366.023Z" fill="#255B8C"/>
</svg>
