<svg width="23" height="22" viewBox="0 0 23 22" fill="none" xmlns="http://www.w3.org/2000/svg">
<g clip-path="url(#clip0_30_1470)">
<path d="M15.986 13.0625C15.9604 13.0422 14.1001 11.7013 13.5895 11.7975C13.3457 11.8406 13.2063 12.0069 12.9267 12.3397C12.8817 12.3934 12.7735 12.5222 12.6895 12.6137C12.5127 12.5561 12.3403 12.4859 12.1735 12.4038C11.3128 11.9847 10.6173 11.2892 10.1982 10.4284C10.116 10.2617 10.0458 10.0893 9.98822 9.9125C10.0801 9.82813 10.2088 9.72 10.2638 9.67375C10.5951 9.39562 10.7617 9.25625 10.8048 9.01187C10.8932 8.50562 9.55322 6.6325 9.53916 6.61563C9.47836 6.52877 9.39902 6.45652 9.30687 6.40409C9.21472 6.35167 9.11207 6.32038 9.00635 6.3125C8.46322 6.3125 6.9126 8.32406 6.9126 8.66281C6.9126 8.6825 6.94104 10.6838 9.40885 13.1941C11.9167 15.6591 13.9176 15.6875 13.9373 15.6875C14.2763 15.6875 16.2876 14.1369 16.2876 13.5938C16.2798 13.4884 16.2487 13.3861 16.1966 13.2942C16.1444 13.2023 16.0725 13.1232 15.986 13.0625Z" fill="#F48C0C"/>
</g>
<rect x="1.1001" y="0.5" width="21" height="21" stroke="#F48C0C"/>
<defs>
<clipPath id="clip0_30_1470">
<rect width="10" height="10" fill="white" transform="translate(6.6001 6)"/>
</clipPath>
</defs>
</svg>
