<svg width="49" height="48" viewBox="0 0 49 48" fill="none" xmlns="http://www.w3.org/2000/svg">
<rect width="49" height="48" fill="#FF7654"/>
<path d="M49 24C49 20.8483 48.3663 17.7274 47.135 14.8156C45.9038 11.9038 44.0992 9.25804 41.8241 7.02944C39.5491 4.80083 36.8482 3.033 33.8757 1.82689C30.9033 0.620778 27.7174 -1.37766e-07 24.5 0C21.2826 1.37766e-07 18.0967 0.620779 15.1243 1.82689C12.1518 3.033 9.45092 4.80083 7.17588 7.02944C4.90085 9.25804 3.09619 11.9038 1.86495 14.8156C0.633711 17.7274 -2.81273e-07 20.8483 0 24L24.5 24H49Z" fill="#0D253B"/>
<path d="M2.09815e-06 24C1.82261e-06 27.1517 0.633714 30.2726 1.86495 33.1844C3.09619 36.0962 4.90085 38.742 7.17588 40.9706C9.45092 43.1992 12.1518 44.967 15.1243 46.1731C18.0967 47.3792 21.2826 48 24.5 48L24.5 24L2.09815e-06 24Z" fill="white"/>
</svg>
