<svg width="99" height="96" viewBox="0 0 99 96" fill="none" xmlns="http://www.w3.org/2000/svg">
<rect x="25" y="24" width="49" height="48" fill="white"/>
<path d="M49 24C49 27.1517 49.6466 30.2726 50.903 33.1844C52.1594 36.0962 54.0009 38.742 56.3223 40.9706C58.6438 43.1992 61.3998 44.967 64.4329 46.1731C67.4661 47.3792 70.717 48 74 48L74 24L49 24Z" fill="#67B0E3"/>
<path d="M50 72C50 68.8483 49.3534 65.7274 48.097 62.8156C46.8406 59.9038 44.9991 57.258 42.6777 55.0294C40.3562 52.8008 37.6002 51.033 34.5671 49.8269C31.5339 48.6208 28.283 48 25 48L25 72H50Z" fill="#255B8C"/>
<path d="M74 48C70.8483 48 67.7274 48.6208 64.8156 49.8269C61.9038 51.033 59.258 52.8008 57.0294 55.0294C54.8008 57.258 53.033 59.9038 51.8269 62.8156C50.6208 65.7274 50 68.8483 50 72L74 72L74 48Z" fill="#FF7654"/>
<path d="M25 48C28.1517 48 31.2726 47.3792 34.1844 46.1731C37.0962 44.967 39.742 43.1992 41.9706 40.9706C44.1992 38.742 45.967 36.0962 47.1731 33.1844C48.3792 30.2726 49 27.1517 49 24L25 24L25 48Z" fill="#0D253B"/>
</svg>
