<svg width="26" height="26" viewBox="0 0 26 26" fill="none" xmlns="http://www.w3.org/2000/svg">
<g clip-path="url(#clip0_2_157)">
<path d="M19.0015 15.6813C18.9682 15.6548 16.5498 13.9116 15.886 14.0367C15.5691 14.0928 15.3879 14.3089 15.0243 14.7416C14.9658 14.8115 14.8253 14.9788 14.716 15.0979C14.4862 15.0229 14.2621 14.9317 14.0453 14.8249C12.9263 14.2801 12.0221 13.376 11.4774 12.257C11.3705 12.0402 11.2792 11.8161 11.2044 11.5863C11.3238 11.4766 11.4912 11.336 11.5627 11.2759C11.9933 10.9143 12.2098 10.7331 12.2659 10.4154C12.3809 9.75731 10.6389 7.32225 10.6206 7.30031C10.5415 7.1874 10.4384 7.09348 10.3186 7.02532C10.1988 6.95717 10.0654 6.9165 9.92793 6.90625C9.22187 6.90625 7.20605 9.52128 7.20605 9.96166C7.20605 9.98725 7.24302 12.5889 10.4512 15.8523C13.7113 19.0568 16.3126 19.0938 16.3381 19.0938C16.7789 19.0938 19.3936 17.0779 19.3936 16.3719C19.3834 16.2349 19.343 16.1019 19.2752 15.9825C19.2074 15.863 19.1139 15.7602 19.0015 15.6813Z" fill="#F48C0C"/>
</g>
<rect x="1.2998" y="1" width="24" height="24" stroke="#F48C0C"/>
<defs>
<clipPath id="clip0_2_157">
<rect width="13" height="13" fill="white" transform="translate(6.7998 6.5)"/>
</clipPath>
</defs>
</svg>
